Coordinates
version=1
nRows=7
nColumns=63
inDegrees=yes

Units are S.I. units (second, meters, Newtons, ...)
If the header above contains a line with 'inDegrees', this indicates whether rotational values are in degrees (yes) or radians (no).

endheader
time	pelvis_tilt	pelvis_list	pelvis_rotation	pelvis_tx	pelvis_ty	pelvis_tz	hip_flexion_r	hip_adduction_r	hip_rotation_r	knee_angle_r	knee_angle_r_beta	ankle_angle_r	subtalar_angle_r	mtp_angle_r	hip_flexion_l	hip_adduction_l	hip_rotation_l	knee_angle_l	knee_angle_l_beta	ankle_angle_l	subtalar_angle_l	mtp_angle_l	L5_S1_Flex_Ext	L5_S1_Lat_Bending	L5_S1_axial_rotation	L4_L5_Flex_Ext	L4_L5_Lat_Bending	L4_L5_axial_rotation	L3_L4_Flex_Ext	L3_L4_Lat_Bending	L3_L4_axial_rotation	L2_L3_Flex_Ext	L2_L3_Lat_Bending	L2_L3_axial_rotation	L1_L2_Flex_Ext	L1_L2_Lat_Bending	L1_L2_axial_rotation	L1_T12_Flex_Ext	L1_T12_Lat_Bending	L1_T12_axial_rotation	Abs_r3	Abs_r2	Abs_r1	Abs_t1	Abs_t2	neck_flexion	neck_bending	neck_rotation	arm_flex_r	arm_add_r	arm_rot_r	elbow_flex_r	pro_sup_r	wrist_flex_r	wrist_dev_r	arm_flex_l	arm_add_l	arm_rot_l	elbow_flex_l	pro_sup_l	wrist_flex_l	wrist_dev_l
      0.03333333	     -1.57727585	     -0.34720884	     -1.36584624	      0.11288827	      0.97587020	      0.37130649	      0.20498558	     -4.15305405	    -28.26931291	      3.45734179	      0.06034200	      5.61514312	     15.32355793	      0.00000000	      1.08338626	     -6.13561554	    -22.80895455	      4.73457138	      0.08263386	      7.02175683	     16.63580221	      0.00000000	      0.01262592	     -0.04827739	      0.87309582	      0.02344759	     -0.06420893	      0.92766431	      0.02074312	     -0.11738166	      0.92766431	      0.01443016	     -0.11738166	      0.76395884	      0.01172443	     -0.09844726	      0.70939035	      0.00721445	     -0.07478168	      0.65482187	      0.09018568	     -0.54612354	      4.85589703	      0.00000000	      0.00000000	      0.00000000	      0.00000000	      0.00000001	      6.54171606	    -32.38264529	    -33.86865343	     16.87131720	     54.09841594	      0.00000000	      4.29217585	     -3.50813131	    -32.95743270	    -16.37130120	     27.20197068	     68.89920941	      0.00000000	      4.29217585
      0.06666667	     -2.22526288	     -0.22191966	     -1.29985380	      0.10886290	      0.97487321	      0.36861906	      1.41363610	     -4.53000519	    -26.88598174	      3.88410845	      0.06779048	      4.82253764	     12.76037767	      0.00000000	      1.88808366	     -5.77725569	    -20.91369626	      4.33806525	      0.07571352	      6.49632268	     14.02010853	      0.00000000	      0.01251030	     -0.06880869	      0.70617540	      0.02323288	     -0.09151556	      0.75031136	      0.02055317	     -0.16730144	      0.75031136	      0.01429802	     -0.16730144	      0.61790347	      0.01161706	     -0.14031468	      0.57376751	      0.00714839	     -0.10658466	      0.52963155	      0.08935982	     -0.77837764	      3.92753570	      0.00000000	      0.00000000	      0.00000000	      0.00000000	      0.00000000	      7.03412488	    -31.14406014	    -46.66909628	     18.10867250	     65.36917440	      0.00000000	      4.98478263	     -5.21662773	    -32.65093305	    -19.86232542	     27.38053249	     68.94748560	      0.00000000	      4.98478263
      0.10000000	     -2.84694069	     -0.06109664	     -1.23936249	      0.10507727	      0.97408167	      0.36615126	      2.50435212	     -4.87663136	    -25.47322390	      4.08491941	      0.07129529	      3.82589056	     10.20252213	      0.00000000	      2.61665255	     -5.35878645	    -18.12184654	      3.87988212	      0.06771672	      5.77275511	     10.29337134	      0.00000000	      0.01212014	     -0.09245517	      0.55178330	      0.02250832	     -0.12296537	      0.58626975	      0.01991218	     -0.22479549	      0.58626975	      0.01385211	     -0.22479549	      0.48281038	      0.01125476	     -0.18853457	      0.44832393	      0.00692545	     -0.14321305	      0.41383747	      0.08657297	     -1.04587133	      3.06885316	      0.00000000	      0.00000000	      0.00000000	      0.00000000	      0.00000000	      6.84835064	    -31.14930550	    -47.68406868	     18.58041785	     65.02627526	      0.00000000	      4.98691612	     -6.87225848	    -32.54255177	    -21.98453660	     27.58890793	     68.46780621	      0.00000000	      4.98691612
      0.13333333	     -3.37387601	      0.15041264	     -1.35021073	      0.10167637	      0.97375697	      0.36432683	      3.44860390	     -5.29204743	    -25.63297692	      4.17778764	      0.07291615	      2.83981266	     10.05357299	      0.00000000	      3.22090493	     -5.06300999	    -17.90054889	      3.58813322	      0.06262474	      5.32056400	     10.14012768	      0.00000000	      0.01142584	     -0.11814932	      0.44950074	      0.02121893	     -0.15713860	      0.47759453	      0.01877151	     -0.28726826	      0.47759453	      0.01305859	     -0.28726826	      0.39331314	      0.01061003	     -0.24093010	      0.36521935	      0.00652872	     -0.18301330	      0.33712555	      0.08161363	     -1.33652876	      2.49998824	      0.00000000	      0.00000000	      0.00000000	      0.00000000	      0.00000000	      6.57053020	    -31.22258364	    -47.75052426	     19.06193281	     64.99519286	      0.00000000	      4.98703922	     -8.09903346	    -32.72979835	    -22.20002499	     27.25874941	     68.43543545	      0.00000000	      4.98703922
      0.16666667	     -3.79225017	      0.44930105	     -1.15062537	      0.09912742	      0.97373657	      0.36248322	      4.05560347	     -5.73843207	    -26.00041261	      4.01688943	      0.07010795	      1.95508705	      9.95392118	      0.00000000	      3.60851716	     -4.52340852	    -14.25150539	      3.02243828	      0.05275150	      4.18451745	      5.84563411	      0.00000000	      0.01173559	     -0.15469380	      0.28864484	      0.02179416	     -0.20574275	      0.30668514	      0.01928040	     -0.37612251	      0.30668514	      0.01341260	     -0.37612251	      0.25256423	      0.01089767	     -0.31545160	      0.23452393	      0.00670572	     -0.23962070	      0.21648363	      0.08382613	     -1.74992721	      1.60535600	      0.00000000	      0.00000000	      0.00000000	      0.00000000	      0.00000000	      6.22367320	    -31.00223159	    -48.02217334	     20.17570016	     64.76559049	      0.00000000	      4.98904155	     -9.42149162	    -32.34685442	    -24.99997452	     27.81551230	     67.70355191	      0.00000000	      4.98904155
      0.20000000	     -4.06232654	      0.80830300	     -1.17828622	      0.09705900	      0.97412414	      0.36132137	      4.48730348	     -6.21278606	    -26.20886298	      3.79509837	      0.06623696	      1.07569238	     10.20364938	      0.00000000	      3.87545364	     -4.10474772	    -13.95984836	      2.74561906	      0.04792009	      3.65513926	      5.94781079	      0.00000000	      0.01048125	     -0.19519928	      0.19337791	      0.01946473	     -0.25961504	      0.20546402	      0.01721965	     -0.47460753	      0.20546402	      0.01197902	     -0.47460753	      0.16920567	      0.00973289	     -0.39805037	      0.15711955	      0.00598899	     -0.30236369	      0.14503343	      0.07486652	     -2.20813331	      1.07550990	      0.00000000	      0.00000000	      0.00000000	      0.00000000	      0.00000000	      5.92061743	    -30.80756652	    -47.80098182	     21.15493606	     64.78503248	      0.00000000	      4.98919552	    -10.15462536	    -32.44169061	    -25.17313095	     27.64798828	     67.66227259	      0.00000000	      4.98919552
      0.23333333	     -4.24402122	      1.04888670	     -1.06378724	      0.09566126	      0.97459901	      0.36002956	      4.74960356	     -6.66756063	    -28.23222076	      3.71814397	      0.06489385	      0.71090675	     12.90673441	      0.00000000	      4.04317352	     -3.77016711	    -12.50977736	      2.47040065	      0.04311663	      2.99041028	      4.64473469	      0.00000000	      0.00956143	     -0.22116376	      0.09409164	      0.01775652	     -0.29414780	      0.09997237	      0.01570847	     -0.53773756	      0.09997237	      0.01092775	     -0.53773756	      0.08233019	      0.00887874	     -0.45099714	      0.07644946	      0.00546340	     -0.34258266	      0.07056873	      0.06829630	     -2.50184868	      0.52330950	      0.00000000	      0.00000000	      0.00000000	      0.00000000	      0.00000000	      5.05713609	    -31.14334904	    -43.70589110	     22.20031169	     65.42297462	      0.00000000	      4.99091919	    -10.57230545	    -32.00298008	    -27.06277787	     27.82526315	     67.02951312	      0.00000000	      4.99091919
